<svg width="46" height="45" viewBox="0 0 46 45" fill="none" xmlns="http://www.w3.org/2000/svg">
<path fill-rule="evenodd" clip-rule="evenodd" d="M4.76777 0.732233C3.79146 -0.244078 2.20854 -0.244078 1.23223 0.732233C0.255922 1.70854 0.255922 3.29146 1.23223 4.26777L19.4645 22.5L1.23223 40.7322C0.255924 41.7085 0.255924 43.2915 1.23223 44.2678C2.20854 45.2441 3.79146 45.2441 4.76777 44.2678L23 26.0355L41.2322 44.2678C42.2085 45.2441 43.7915 45.2441 44.7678 44.2678C45.7441 43.2915 45.7441 41.7085 44.7678 40.7322L26.5355 22.5L44.7678 4.26777C45.7441 3.29146 45.7441 1.70854 44.7678 0.732233C43.7915 -0.244078 42.2085 -0.244078 41.2322 0.732233L23 18.9645L4.76777 0.732233Z" fill="#FF0000"/>
</svg>
