<svg width="45" height="45" viewBox="0 0 45 45" fill="none" xmlns="http://www.w3.org/2000/svg">
<path id="Subtract" fill-rule="evenodd" clip-rule="evenodd" d="M27.7037 38.1549C20.4147 40.5902 12.1788 37.6566 8.18849 30.7495C7.22242 29.0773 6.58261 27.3061 6.24936 25.5097L0.172122 25.5097C0.552214 28.3322 1.47842 31.129 2.99153 33.7481C8.64468 43.5336 20.5432 47.4688 30.7503 43.4285L27.7037 38.1549ZM31.4229 36.3708L34.4269 41.5706C44.6619 35.1789 48.0626 21.7799 41.9804 11.2519C40.2376 8.23511 37.9012 5.77437 35.2038 3.93192L32.1905 9.14781C34.0098 10.4666 35.5874 12.18 36.7835 14.2505C41.207 21.9074 38.7902 31.6385 31.4229 36.3708ZM6.01239 21.3988C6.37246 16.0994 9.28205 11.0692 14.2323 8.21302C18.7798 5.58911 24.0562 5.37305 28.5844 7.16796L31.609 1.93243C25.2602 -0.873996 17.7033 -0.716872 11.2309 3.01768C4.35735 6.98363 0.368514 14.0253 2.87933e-06 21.3988L6.01239 21.3988Z" fill="white"/>
</svg>
