<svg width="45" height="37" viewBox="0 0 45 37" fill="none" xmlns="http://www.w3.org/2000/svg">
<g id="Group 49">
<path id="=" d="M0.000197068 15.0227V9.8667H20.9669V15.0227H0.000197068ZM0.000197068 24.6667V19.5107H20.9669V24.6667H0.000197068Z" fill="#475976"/>
<path id="(" d="M32.5334 18.4927C32.5334 14.8672 33.0353 11.5293 34.039 8.47886C35.0528 5.42842 36.5989 2.60213 38.6773 0H44.8668C44.076 0.964836 43.341 2.14408 42.6617 3.53773C41.9824 4.92164 41.3893 6.44199 40.8824 8.09877C40.3755 9.75556 39.9801 11.4708 39.6962 13.2446C39.4123 15.0086 39.2704 16.7579 39.2704 18.4927C39.2704 20.8024 39.5137 23.1366 40.0004 25.4951C40.4971 27.8438 41.1663 30.0269 42.0078 32.0443C42.8594 34.0616 43.8124 35.7136 44.8668 37H38.6773C36.5989 34.3979 35.0528 31.5716 34.039 28.5211C33.0353 25.4707 32.5334 22.1279 32.5334 18.4927Z" fill="#475976"/>
</g>
</svg>
